<?xml version="1.0" encoding="UTF-8" standalone="no"?><!DOCTYPE svg PUBLIC "-//W3C//DTD SVG 1.1//EN" "http://www.w3.org/Graphics/SVG/1.1/DTD/svg11.dtd"><svg width="100%" height="100%" viewBox="0 0 313 277" version="1.1" xmlns="http://www.w3.org/2000/svg" xmlns:xlink="http://www.w3.org/1999/xlink" xml:space="preserve" xmlns:serif="http://www.serif.com/" style="fill-rule:evenodd;clip-rule:evenodd;stroke-linejoin:round;stroke-miterlimit:2;"><path id="Love" d="M85.066,0l-4.237,0c-26.132,1.42 -51.558,17.038 -67.096,40.464c-14.126,22.008 -17.657,48.274 -9.182,70.991c9.888,26.976 34.608,51.113 56.502,72.41c4.944,4.969 9.888,9.939 14.126,14.198c15.538,15.618 31.076,30.526 45.908,44.724c8.475,7.809 16.95,16.328 25.425,24.847l9.182,9.228l9.888,-8.518c28.251,-24.137 56.502,-51.114 84.047,-80.22c2.825,-2.839 5.65,-6.389 9.181,-9.228c20.482,-21.297 46.614,-47.564 52.265,-79.51c4.237,-26.266 -2.119,-51.822 -17.657,-70.28c-14.832,-17.748 -36.727,-27.686 -60.74,-27.686l-3.531,-0c-38.139,1.42 -60.74,20.587 -74.159,37.625c-12.713,-17.748 -36.02,-39.045 -69.922,-39.045Z" style="fill:#f00;"/></svg>