<?xml version="1.0" encoding="UTF-8" standalone="no"?><!DOCTYPE svg PUBLIC "-//W3C//DTD SVG 1.1//EN" "http://www.w3.org/Graphics/SVG/1.1/DTD/svg11.dtd"><svg width="100%" height="100%" viewBox="0 0 330 294" version="1.1" xmlns="http://www.w3.org/2000/svg" xmlns:xlink="http://www.w3.org/1999/xlink" xml:space="preserve" xmlns:serif="http://www.serif.com/" style="fill-rule:evenodd;clip-rule:evenodd;stroke-linejoin:round;stroke-miterlimit:1.41421;"><path id="Love" d="M93.4,8.333l-4.238,0c-26.132,1.42 -51.558,17.038 -67.096,40.465c-14.126,22.007 -17.657,48.273 -9.182,70.99c9.888,26.977 34.608,51.113 56.502,72.41c4.944,4.97 9.888,9.939 14.126,14.198c15.538,15.618 31.076,30.526 45.908,44.724c8.475,7.809 16.95,16.328 25.426,24.847l9.181,9.229l9.888,-8.519c28.251,-24.137 56.502,-51.113 84.047,-80.219c2.825,-2.84 5.65,-6.389 9.182,-9.229c20.482,-21.297 46.614,-47.564 52.264,-79.509c4.238,-26.267 -2.119,-51.823 -17.657,-70.281c-14.832,-17.747 -36.726,-27.686 -60.74,-27.686l-3.531,0c-38.139,1.42 -60.74,20.587 -74.159,37.625c-12.713,-17.748 -36.02,-39.045 -69.921,-39.045Z" style="fill:none;stroke:#f00;stroke-width:16.67px;"/></svg>